<svg id="Capa_1" enable-background="new 0 0 511.994 511.994" height="512" viewBox="0 0 511.994 511.994" width="512" xmlns="http://www.w3.org/2000/svg"><g><g><path d="m124.939 290.066 97.485 97.485c7.798 7.798 20.493 7.798 28.283.008l15.812-15.812 59.717 25.188 24.134 58.663-15.812 15.812c-54.117 54.117-141.867 54.109-195.984-.008l-97.485-97.485c-54.126-54.126-54.126-141.867-.008-195.984l15.812-15.812 59.19 24.661 24.661 59.19-15.812 15.812c-7.792 7.789-7.792 20.484.007 28.282z" fill="#9dc6fb"/><path d="m349.373 453.156.998 2.44-15.814 15.814c-54.117 54.117-141.867 54.109-195.984-.008l-97.485-97.485c-54.126-54.126-54.126-141.867-.008-195.984l15.814-15.814 2.432 1.006c-36.777 53.933-31.226 128.074 16.628 175.927l97.485 97.485c47.852 47.854 122.002 53.396 175.934 16.619z" fill="#80b4fb"/><path d="m59.053 129.754c-9.535 9.535-9.535 24.994 0 34.529l79.528 79.528c9.535 9.535 24.994 9.535 34.529 0 9.535-9.535 9.535-24.994 0-34.529l-79.528-79.528c-9.535-9.535-24.995-9.535-34.529 0z" fill="#f9f6f9"/><path d="m269.206 339.907c-9.535 9.535-9.535 24.994 0 34.529l79.528 79.528c9.535 9.535 24.994 9.535 34.529 0 9.535-9.535 9.535-24.994 0-34.529l-79.528-79.528c-9.535-9.535-24.994-9.535-34.529 0z" fill="#f9f6f9"/><g fill="#dddaec"><path d="m339.015 375.186 44.248 44.248c4.771 4.771 7.144 11.018 7.153 17.265 0 6.255-2.39 12.502-7.152 17.265-9.534 9.534-24.996 9.534-34.53 0l-44.248-44.248c9.534 9.534 24.996 9.534 34.53 0 4.763-4.763 7.144-11.018 7.152-17.265-.009-6.247-2.39-12.502-7.153-17.265z"/><path d="m128.861 165.033 44.248 44.248c4.771 4.771 7.144 11.018 7.153 17.265 0 6.255-2.39 12.502-7.152 17.265-9.534 9.534-24.996 9.534-34.53 0l-44.248-44.248c9.534 9.534 24.996 9.534 34.53 0 4.763-4.763 7.144-11.018 7.152-17.265-.009-6.247-2.39-12.502-7.153-17.265z"/></g></g><g><path d="m256.49 91.542c-10.448 0-18.918-8.47-18.918-18.918v-53.706c0-10.448 8.47-18.918 18.918-18.918 10.448 0 18.918 8.47 18.918 18.918v53.706c0 10.448-8.47 18.918-18.918 18.918z" fill="#5e54ac"/></g><g><path d="m351.102 91.139c-9.048-5.224-12.148-16.794-6.924-25.842l13.976-24.207c5.224-9.048 16.794-12.148 25.842-6.924 9.048 5.224 12.148 16.794 6.924 25.842l-13.976 24.207c-5.224 9.048-16.794 12.148-25.842 6.924z" fill="#5e54ac"/></g><g><path d="m420.363 160.4c-5.224-9.048-2.124-20.618 6.924-25.842l24.207-13.976c9.048-5.224 20.618-2.124 25.842 6.924 5.224 9.048 2.124 20.618-6.924 25.842l-24.207 13.976c-9.048 5.224-20.618 2.124-25.842-6.924z" fill="#5e54ac"/></g><g><path d="m419.96 255.012c0-10.448 8.47-18.918 18.918-18.918h53.706c10.448 0 18.918 8.47 18.918 18.918 0 10.448-8.47 18.918-18.918 18.918h-53.706c-10.448 0-18.918-8.47-18.918-18.918z" fill="#5e54ac"/></g><g><path d="m420.363 349.624c5.224-9.048 16.794-12.148 25.842-6.924l24.207 13.976c9.048 5.224 12.148 16.794 6.924 25.842-5.224 9.048-16.794 12.148-25.842 6.924l-24.207-13.976c-9.048-5.223-12.148-16.793-6.924-25.842z" fill="#5e54ac"/></g><g><path d="m128.984 34.165c9.048-5.224 20.618-2.124 25.842 6.924l13.976 24.207c5.224 9.048 2.124 20.618-6.924 25.842-9.048 5.224-20.618 2.124-25.842-6.924l-13.976-24.207c-5.225-9.048-2.125-20.618 6.924-25.842z" fill="#5e54ac"/></g><g><g><path d="m358.353 289.095c-.022 0-.044 0-.067-.001-4.268-.037-7.696-3.526-7.66-7.792.059-6.89.121-14.654.178-22.699h-43.888c-2.733 0-5.264-1.444-6.653-3.798-1.39-2.354-1.433-5.267-.113-7.66 5.793-10.499 34.98-63.232 40.794-70.365 6.285-7.712 12.929-6.7 15.497-5.905 5.442 1.686 9.315 7.063 9.868 13.701.311 3.724.206 33.024.05 58.575h5.433c4.268 0 7.726 3.459 7.726 7.726s-3.459 7.726-7.726 7.726h-5.536c-.081 11.31-.155 20.135-.178 22.832-.037 4.245-3.489 7.66-7.725 7.66zm-38.319-45.944h30.872c.139-22.947.215-45.216.101-53.829-5.61 8.741-19.676 33.542-30.973 53.829z" fill="#dd5790"/></g><g><path d="m250.863 289.113c-19.718 0-21.128-.47-22.161-.815-2.625-.875-4.584-2.85-5.374-5.417-1.394-4.532.503-7.016 6.787-15.244 5.264-6.892 15.062-19.722 31.473-43.171 5.782-8.629 9.247-14.688 10.093-22.445-.24-10.11-8.538-18.259-18.705-18.259-8.922 0-16.643 6.34-18.358 15.075-.822 4.187-4.883 6.911-9.071 6.092-4.187-.822-6.914-4.884-6.092-9.071 3.136-15.963 17.233-27.548 33.521-27.548 18.837 0 34.162 15.325 34.162 34.162-.043 1.224-.496 4.528-.71 5.741-1.774 7.65-5.871 16.1-12.181 25.114-14.219 20.317-23.542 32.767-29.274 40.307 10.17.037 24.94-.055 38.719-.228 4.273-.098 7.771 3.362 7.823 7.629.054 4.267-3.361 7.769-7.628 7.823-14.596.182-25.238.255-33.024.255zm-18.346-15.734" fill="#dd5790"/></g></g></g></svg>