
<svg version="1.1" id="Layer_1" xmlns="http://www.w3.org/2000/svg"
	 viewBox="0 0 512 512" style="enable-background:new 0 0 512 512;" xml:space="preserve">
<g>
	<g>
		<path d="M407.273,0c-62.068,0-104.471,35.793-141.894,67.375c-31.162,26.275-58.042,48.989-90.833,48.989h-128
			C14.569,116.364,0,176.687,0,232.727c0,56.041,14.569,116.364,46.545,116.364h128c32.791,0,59.671,22.714,90.833,48.989
			c37.423,31.581,79.826,67.375,141.894,67.375C476.02,465.455,512,348.369,512,232.727S476.02,0,407.273,0z M407.273,418.909
			c-19.759,0-58.182-65.722-58.182-186.182s38.423-186.182,58.182-186.182c19.758,0,58.182,65.722,58.182,186.182
			S427.031,418.909,407.273,418.909z"/>
	</g>
</g>
<g>
	<g>
		<path d="M389.958,165.376c-3.351-0.838-6.772-0.233-9.565,1.676c-2.793,1.932-4.585,4.98-4.957,8.332
			c-2.071,19.433-3.072,38.191-3.072,57.344s1.001,37.911,3.095,57.321c0.372,3.375,2.164,6.4,4.957,8.332
			c1.955,1.35,4.282,2.048,6.609,2.048c0.977,0,1.955-0.116,2.932-0.372c30.743-8.006,52.224-35.7,52.224-67.328
			C442.182,201.1,420.701,173.405,389.958,165.376z"/>
	</g>
</g>
<g>
	<g>
		<path d="M217.321,430.545c-6.656,0-12.521-4.236-14.615-10.543l-13.103-39.261c-1.396-4.189-6.447-7.401-10.822-8.029
			c-1.42-0.186-2.863-0.349-4.236-0.349H94.743c-3.654,0-7.098,1.722-9.286,4.631c-2.188,2.909-2.909,6.703-1.908,10.193
			l26.019,91.043C115.247,498.106,133.655,512,154.321,512h62.999C238.639,512,256,494.639,256,473.321v-4.096
			C256,447.907,238.639,430.545,217.321,430.545z"/>
	</g>
</g>
<g>
</g>
<g>
</g>
<g>
</g>
<g>
</g>
<g>
</g>
<g>
</g>
<g>
</g>
<g>
</g>
<g>
</g>
<g>
</g>
<g>
</g>
<g>
</g>
<g>
</g>
<g>
</g>
<g>
</g>
</svg>
