<svg id="Capa_1" enable-background="new 0 0 512 512" height="512" viewBox="0 0 512 512" width="512" xmlns="http://www.w3.org/2000/svg"><g><g><g><path d="m172.723 512c1.458-14.114 5.288-26.88 11.658-37.146v-118.561c-10.901-5.046-23.967-8.705-38.97-8.705-73.268 0-101.952 34.908-118.956 60.323-12.003 17.945-18.318 39.089-18.318 60.677v27.869c0 8.584 6.959 15.543 15.543 15.543z" fill="#ffccb7"/><path d="m325.65 240.608c-14.026-1.992-27.089 7.545-29.463 21.512l-4.83 28.408-69.978 47.912-36.095 8.364 12.842 60.314 51.806-11.031c3.147-.67 6.071-2.129 8.498-4.24l79.337-69.006c3.686-3.206 5.992-7.709 6.44-12.573l3.81-41.365c1.28-13.887-8.561-26.334-22.367-28.295z" fill="#f2886b"/><path d="m402.982 278.895c-13.096-4.793-27.628 1.711-32.777 14.671l-10.474 26.361-77.197 31.785-78.26 1.401v59.955h93.934c3.167 0 6.282-.806 9.051-2.341l90.532-50.174c4.206-2.331 7.35-6.194 8.778-10.785l12.148-39.045c4.079-13.108-2.843-27.11-15.735-31.828z" fill="#f79a7c"/><path d="m450.478 279.047c-14.36-5.256-30.295 1.876-35.942 16.088l-11.485 28.906-84.649 34.853-118.466 2.121v65.159h135.653c3.473 0 6.888-.883 9.926-2.566l99.273-55.019c4.611-2.556 8.059-6.792 9.626-11.826l13.321-42.815c4.47-14.374-3.121-29.728-17.257-34.901z" fill="#fcad97"/><path d="m123.708 380.374v63.17h246.73c3.473 0 6.888-.883 9.925-2.566l99.273-55.019c4.611-2.556 8.059-6.792 9.626-11.826l13.321-42.815c4.472-14.373-3.119-29.727-17.255-34.901-14.36-5.256-30.295 1.876-35.942 16.088l-11.486 28.906-84.649 34.853z" fill="#ffccb7"/><path d="m473.351 383.844c-8.642-16.815-28.925-23.936-46.181-16.213l-45.967 20.571h-24.755c-34.035 0-67.262-9.787-96.208-27.676-14.829-9.17-34.557-17.082-58.46-17.082-85.875 0-119.494 40.915-139.424 70.702-14.069 21.033-21.472 45.814-21.472 71.117v11.194c0 8.584 6.959 15.543 15.543 15.543h155.668c6.154 0 11.631-3.719 14.104-9.354 10.516-23.965 30.279-39.779 60.451-39.779h101.498c5.017 0 9.964-1.168 14.451-3.413l55.023-27.523c17.711-8.859 24.781-30.474 15.729-48.087z" fill="#ffdbcf"/><path d="m79.717 425.76c8.571 5.734 20.035 3.967 26.619-3.97 16.938-20.422 42.57-38.346 95.444-38.346 7.894 0 15.666 1.395 23.236 4.162 8.836 3.229 18.726-.399 23.674-8.4 6.676-10.795 1.694-24.953-10.238-29.281-10.778-3.909-23.046-6.48-36.671-6.48-69.537 0-104.811 26.828-126.297 52.851-7.574 9.171-5.653 22.851 4.233 29.464z" fill="#ffece6"/><path d="m171.738 345.302c-28.044 3.627-49.158 12.278-65.493 23.044-11.615 7.655-11.936 24.587-.646 32.714l.331.238c6.689 4.815 15.631 4.942 22.517.414 12.029-7.909 27.472-14.035 48.299-16.746 9.971-1.298 17.447-9.769 17.447-19.824 0-12.015-10.538-21.381-22.455-19.84z" fill="#fff7f5"/></g><g><g><g><g><circle cx="284.473" cy="160.647" fill="#ffe059" r="160.647"/><path d="m445.119 160.647c0 88.578-72.068 160.646-160.646 160.646-37.145 0-71.389-12.669-98.628-33.924 21.303 11.166 45.526 17.481 71.204 17.481 84.873 0 153.923-69.051 153.923-153.933 0-74.435-53.112-136.695-123.424-150.887 87.162 1.639 157.571 73.066 157.571 160.617z" fill="#ffc751"/><circle cx="284.473" cy="160.647" fill="#ff993a" r="112.142"/><path d="m396.611 160.645c0 61.934-50.204 112.138-112.138 112.138-35.688 0-67.482-16.668-88.019-42.654 17.44 13.335 39.233 21.259 62.892 21.259 57.27 0 103.692-46.423 103.692-103.692 0-46.547-30.675-85.942-72.918-99.04 59.309 2.936 106.491 51.946 106.491 111.989z" fill="#f97c15"/><g><path d="m299.051 150.92h-4.852v-25.696h22.611c5.373 0 9.727-4.355 9.727-9.727s-4.354-9.727-9.727-9.727h-22.611v-7.083c0-5.372-4.354-9.727-9.727-9.727s-9.727 4.355-9.727 9.727v7.083h-4.85c-17.81 0-32.302 14.491-32.302 32.302 0 17.81 14.492 32.301 32.302 32.301h4.85v25.695h-22.609c-5.373 0-9.727 4.355-9.727 9.727s4.354 9.727 9.727 9.727h22.609v7.084c0 5.372 4.354 9.727 9.727 9.727s9.727-4.355 9.727-9.727v-7.084h4.852c17.81 0 32.3-14.491 32.3-32.301s-14.489-32.301-32.3-32.301zm-29.156 0c-7.084 0-12.848-5.763-12.848-12.847s5.764-12.848 12.848-12.848h4.85v25.696h-4.85zm29.156 45.148h-4.852v-25.695h4.852c7.084 0 12.846 5.763 12.846 12.847s-5.761 12.848-12.846 12.848z" fill="#ffe059"/><path d="m274.746 215.522h19.454v7.084h-19.454z" fill="#ffc751"/><g><path d="m274.746 170.373h19.454v25.695h-19.454z" fill="#ffc751"/><path d="m274.746 170.373h19.454v11.964h-19.454z" fill="#ffaf40"/><path d="m274.746 125.224h19.454v15.488h-19.454z" fill="#ffc751"/></g><path d="m269.895 150.92c-4.914 0-9.186-2.775-11.342-6.839-1.671-3.15-4.97-5.092-8.536-5.092-7.181 0-12.069 7.609-8.751 13.977 5.385 10.334 16.189 17.407 28.628 17.407h29.156c4.835 0 9.054 2.685 11.246 6.642 1.689 3.049 4.936 4.902 8.422 4.902 7.473 0 12.101-8.065 8.422-14.569-5.542-9.799-16.047-16.428-28.089-16.428z" fill="#fff370"/></g><path d="m274.746 98.687h19.454v7.083h-19.454z" fill="#ffc751"/><path d="m202.767 203.331c8.308-3.764 12.388-13.073 9.842-21.832-1.925-6.622-2.957-13.619-2.957-20.854 0-29.995 17.742-55.906 43.28-67.822 8.034-3.749 12.068-12.871 9.77-21.433l-.093-.346c-2.958-11.022-15.15-16.893-25.493-12.069-38.264 17.85-64.782 56.66-64.782 101.67 0 10.73 1.507 21.109 4.321 30.935 3.152 11.005 15.344 16.631 25.771 11.906.114-.052.227-.104.341-.155z" fill="#ffaf40"/><path d="m212.095 141.692c3.62-13.808 11.097-26.067 21.207-35.556 6.941-6.515 7.761-17.25 1.931-24.776l-.23-.297c-6.617-8.543-19.204-9.711-27.098-2.331-15.22 14.229-26.47 32.648-31.912 53.421-2.926 11.171 4.883 22.281 16.393 23.205.124.01.248.02.372.03 8.913.715 17.07-5.048 19.337-13.696z" fill="#ffc751"/></g></g><path d="m162.63 160.647c0-50.586 30.983-94.063 74.97-112.462 9.27-3.878 13.868-14.358 10.613-23.865l-.126-.368c-3.612-10.551-15.408-15.775-25.689-11.452-57.846 24.324-98.571 81.563-98.571 148.147 0 38.443 13.58 73.768 36.189 101.445 7.18 8.789 20.399 9.424 28.424 1.399l.274-.274c6.943-6.944 7.558-18.033 1.347-25.639-17.139-20.991-27.431-47.78-27.431-76.931z" fill="#fff370"/><path d="m149.116 187.852c8.579-2.504 14.316-10.606 13.755-19.525-.16-2.54-.241-5.1-.241-7.68 0-39.908 19.287-75.385 49.027-97.619 7.36-5.503 9.811-15.415 5.669-23.619-.058-.116-.117-.231-.175-.347-5.455-10.816-19.387-14.11-29.068-6.828-38.993 29.332-64.257 75.972-64.257 128.412 0 3.312.101 6.601.301 9.863.758 12.385 12.703 20.928 24.614 17.451z" fill="#fff7c7"/></g></g></g><g><g><g><g><path d="m109.886 205.826c1.27-.837 1.27-2.695 0-3.532-3.279-2.16-6.391-4.673-9.281-7.541s-5.422-5.957-7.599-9.21c-.843-1.261-2.716-1.261-3.559 0-2.176 3.254-4.709 6.342-7.599 9.21s-6.002 5.381-9.281 7.541c-1.27.837-1.27 2.695 0 3.532 3.279 2.16 6.391 4.673 9.281 7.541s5.422 5.957 7.599 9.21c.843 1.261 2.716 1.261 3.559 0 2.176-3.254 4.709-6.342 7.599-9.21s6.002-5.381 9.281-7.541z" fill="#ffe059"/></g></g><g><g><path d="m109.887 205.824c-3.278 2.16-6.39 4.672-9.281 7.541s-5.423 5.957-7.599 9.211c-.844 1.259-2.714 1.259-3.558 0-2.177-3.253-4.708-6.341-7.599-9.211-.376-.373-.758-.741-1.145-1.104.511.043 1.026.064 1.548.064 9.921 0 18.009-7.819 18.342-17.584l.011.011c2.891 2.869 6.003 5.381 9.281 7.541 1.268.838 1.268 2.694 0 3.531z" fill="#ffc751"/></g></g></g><path d="m182.765 244.523-9.521-2.952c-13.749-4.263-24.513-15.027-28.776-28.776l-2.952-9.521c-.288-.929-1.148-1.563-2.121-1.563-.973 0-1.833.633-2.121 1.563l-2.952 9.521c-4.263 13.749-15.027 24.513-28.776 28.776l-9.521 2.952c-.929.288-1.563 1.148-1.563 2.121 0 .973.633 1.833 1.563 2.121l9.521 2.952c13.749 4.263 24.513 15.027 28.776 28.776l2.952 9.521c.288.929 1.148 1.563 2.121 1.563.973 0 1.833-.633 2.121-1.563l2.952-9.521c4.263-13.749 15.027-24.513 28.776-28.776l9.521-2.952c.929-.288 1.563-1.148 1.563-2.121 0-.973-.634-1.833-1.563-2.121z" fill="#ffe059"/><path d="m184.325 246.64c0 .974-.632 1.834-1.565 2.124l-9.512 2.953c-13.75 4.259-24.516 15.025-28.775 28.775l-2.953 9.523c-.29.933-1.15 1.565-2.124 1.565s-1.834-.632-2.124-1.565l-2.953-9.523c-1.44-4.663-3.637-8.984-6.455-12.828 14.973-2.663 26.329-15.75 26.329-31.479 0-2.622-.311-5.171-.912-7.616 5.243 6.01 12.113 10.569 19.967 13.004l9.512 2.953c.933.29 1.565 1.14 1.565 2.114z" fill="#ffc751"/></g></g></svg>